<svg version="1.1" viewBox="0 0 16 16" xmlns="http://www.w3.org/2000/svg">
 <g fill="#222">
  <path d="m5.8281 6.6484-5.2969 5.2734c-0.375 0.37109-0.50391 0.56637-0.50391 1.0977 0.027344 1.0898 0.91016 1.9727 2 2 0.34766 0 0.64847-0.25 1.0195-0.625l5.1328-5.1211v-0.31055l-2.3516-2.3145z"/>
  <path d="m8.1406 0.27344c-1.1548 0.0087891-2.5176 0.29883-3.8945 0.87891-0.23828 0.17578-0.33202 0.48438-0.23438 0.76172 0.10156 0.27344 0.36719 0.45313 0.66016 0.44141 0.9375-0.039063 2.3125 0.22266 2.9766 0.88281 0.27344 0.26562 0.82812 0.79294 0.21094 1.418-0.24609 0.23828-1.0859 1.0664-1.0859 1.0664l1.707 1.709c0.22035-0.17532 0.48047-0.17578 0.48047-0.17578h0.080078c0.14821 0 0.30028 0.032865 0.43164 0.10547l0.375 0.20898 0.53906-0.50781c0.26562-0.25391 0.75002-0.21094 1.0117 0.042969 0.26172 0.26172 0.26172 0.68359 0 0.94531-0.08444 0.08444-0.14015 0.18586-0.16992 0.29297l2.0664 1.1582 2.3457-2.3496c0.39453-0.39063 0.39453-1.0273 0-1.418v0.0039062l-0.48047-0.48047c-0.12891-0.12891-0.66016-0.30469-0.92188-0.042969-0.26562 0.25391-0.68359 0.25391-0.94531 0-0.19141-0.1875-0.25-0.46875-0.15234-0.71875 0.21484-0.5 0.10547-0.96483-0.17578-1.2461-0.95703-0.96094-1.6211-1.6562-2.1797-2.168-0.54297-0.54492-1.4897-0.81738-2.6445-0.80859z"/>
  <path d="m9.2006 9.5397v5.6643c0 0.77138 0.65314 0.76856 0.65314 0.76856h0.067566c0.12387 0 0.25056-0.02816 0.36035-0.09008l5.0449-2.8828c0.2224-0.12387 0.33783-0.37724 0.33783-0.63062 0-0.25337-0.11543-0.50674-0.33783-0.63061l-5.0449-2.8828c-0.1098-0.061936-0.23648-0.090088-0.36035-0.090088h-0.067566s-0.65314 0-0.65314 0.77419z"/>
 </g>
</svg>
