<?xml version="1.0" encoding="UTF-8" standalone="no"?>
<svg
   height="128px"
   viewBox="0 0 128 128"
   width="128px"
   version="1.1"
   id="svg19"
   sodipodi:docname="eu.jumplink.Easy6502.svg"
   inkscape:version="1.3.2 (091e20ef0f, 2023-11-25)"
   xmlns:inkscape="http://www.inkscape.org/namespaces/inkscape"
   xmlns:sodipodi="http://sodipodi.sourceforge.net/DTD/sodipodi-0.dtd"
   xmlns="http://www.w3.org/2000/svg"
   xmlns:svg="http://www.w3.org/2000/svg">
  <defs
     id="defs19" />
  <sodipodi:namedview
     id="namedview19"
     pagecolor="#ffffff"
     bordercolor="#000000"
     borderopacity="0.25"
     inkscape:showpageshadow="2"
     inkscape:pageopacity="0.0"
     inkscape:pagecheckerboard="0"
     inkscape:deskcolor="#d1d1d1"
     inkscape:zoom="3.1445313"
     inkscape:cx="49.291925"
     inkscape:cy="54.53913"
     inkscape:window-width="1920"
     inkscape:window-height="1011"
     inkscape:window-x="0"
     inkscape:window-y="0"
     inkscape:window-maximized="1"
     inkscape:current-layer="svg19" />
  <linearGradient
     id="a"
     gradientUnits="userSpaceOnUse"
     x1="21.43676"
     x2="106.45895"
     y1="64.840469"
     y2="64.840469">
    <stop
       offset="0"
       stop-color="#1a5fb4"
       id="stop1" />
    <stop
       offset="0.02457537"
       stop-color="#3584e4"
       id="stop2" />
    <stop
       offset="0.22"
       stop-color="#1a5fb4"
       id="stop3" />
    <stop
       offset="0.78"
       stop-color="#1a5fb4"
       id="stop4" />
    <stop
       offset="0.97396708"
       stop-color="#3584e4"
       id="stop5" />
    <stop
       offset="1"
       stop-color="#1a5fb4"
       id="stop6" />
  </linearGradient>
  <linearGradient
     id="b"
     gradientTransform="matrix(1.315789 0 0 1.052826 -20.280045 -26.486496)"
     gradientUnits="userSpaceOnUse"
     x1="45"
     x2="45"
     y1="50"
     y2="82">
    <stop
       offset="0"
       stop-color="#243539"
       id="stop7" />
    <stop
       offset="1"
       stop-color="#151515"
       id="stop8" />
  </linearGradient>
  <path
     d="m 29.429688 8.644531 h 69 c 4.417968 0 8 3.582031 8 8 v 94 c 0 4.417969 -3.582032 8 -8 8 h -69 c -4.417969 0 -8 -3.582031 -8 -8 v -94 c 0 -4.417969 3.582031 -8 8 -8 z m 0 0"
     fill="url(#a)"
     id="path8"
     style="fill:url(#a)" />
  <path
     d="m 29.429688 8.644531 h 69 c 4.417968 0 8 3.582031 8 8 v 84.769531 c 0 4.417969 -3.582032 8 -8 8 h -69 c -4.417969 0 -8 -3.582031 -8 -8 v -84.769531 c 0 -4.417969 3.582031 -8 8 -8 z m 0 0"
     fill="#62a0ea"
     id="path9" />
  <path
     d="m 91.015625 19 h -54.167969 c -2.992187 0 -5.417968 1.789062 -5.417968 4 v 40 c 0 2.210938 2.425781 4 5.417968 4 h 54.167969 c 2.988281 0 5.414063 -1.789062 5.414063 -4 v -40 c 0 -2.210938 -2.425782 -4 -5.414063 -4 z m 0 0"
     id="path10" />
  <path
     d="m 86.300781 26.15625 h -44.738281 c -1.453125 0 -2.632812 0.941406 -2.632812 2.105469 v 29.476562 c 0 1.164063 1.179687 2.105469 2.632812 2.105469 h 44.738281 c 1.453125 0 2.628907 -0.941406 2.628907 -2.105469 v -29.476562 c 0 -1.164063 -1.175782 -2.105469 -2.628907 -2.105469 z m 0 0"
     fill="url(#b)"
     id="path11" />
  <path
     d="m 46.832031 80.746094 c 0 -1.933594 -1.566406 -3.5 -3.5 -3.5 c -1.929687 0 -3.5 1.566406 -3.5 3.5 v 13 c 0 1.933594 1.570313 3.5 3.5 3.5 c 1.933594 0 3.5 -1.566406 3.5 -3.5 z m 0 0"
     id="path12" />
  <path
     d="m 50.832031 82.246094 h -15 c -1.65625 0 -3 1.34375 -3 3 v 2 c 0 1.65625 1.34375 3 3 3 h 15 c 1.660157 0 3 -1.34375 3 -3 v -2 c 0 -1.65625 -1.339843 -3 -3 -3 z m 0 0"
     id="path13" />
  <path
     d="m 46.832031 78.746094 c 0 -1.933594 -1.566406 -3.5 -3.5 -3.5 c -1.929687 0 -3.5 1.566406 -3.5 3.5 v 13 c 0 1.933594 1.570313 3.5 3.5 3.5 c 1.933594 0 3.5 -1.566406 3.5 -3.5 z m 0 0"
     fill="#3d3846"
     id="path14" />
  <path
     d="m 50.832031 82.246094 h -15 c -1.65625 0 -3 1.34375 -3 3 s 1.34375 3 3 3 h 15 c 1.660157 0 3 -1.34375 3 -3 s -1.339843 -3 -3 -3 z m 0 0"
     fill="#3d3846"
     id="path15" />
  <path
     d="m 83.0625 90.371094 v -1 c 0 -2.761719 -2.238281 -5 -5 -5 s -5 2.238281 -5 5 v 1 c 0 2.761718 2.238281 5 5 5 s 5 -2.238282 5 -5 z m 12 -6 v -1 c -0.003906 -2.757813 -2.242188 -4.996094 -5 -4.996094 c -2.761719 0 -5 2.238281 -5 4.996094 v 1 c 0 2.761718 2.238281 4.996094 5 4.996094 c 2.757812 0 4.996094 -2.234376 5 -4.996094 z m 0 0"
     id="path16" />
  <path
     d="m 78.0625 93.371094 c 2.757812 0 5 -2.015625 5 -4.5 s -2.242188 -4.5 -5 -4.5 c -2.761719 0 -5 2.015625 -5 4.5 s 2.238281 4.5 5 4.5 z m 12 -6 c 2.757812 0 5 -2.015625 5 -4.5 s -2.242188 -4.5 -5 -4.5 c -2.761719 0 -5 2.015625 -5 4.5 s 2.238281 4.5 5 4.5 z m 0 0"
     fill="#3d3846"
     id="path17" />
  <path
     d="m 80.546875 31.65625 h 4 v 4 h -4 z m 0 0"
     fill="#33d17a"
     id="path18" />
  <path
     d="m 43.042969 53.550781 h 15.214843 v -20.101562 l 13.460938 0.023437"
     fill="none"
     stroke="#deddda"
     stroke-width="4"
     id="path19" />
</svg>
