<?xml version="1.0" encoding="UTF-8"?>
<svg height="16px" viewBox="0 0 16 16" width="16px" xmlns="http://www.w3.org/2000/svg">
    <path d="m 3.34375 0.535156 c -0.484375 0 -0.875 0.390625 -0.875 0.878906 v 13.3125 c 0 0.484376 0.390625 0.875 0.875 0.875 h 9.496094 c 0.484375 0 0.878906 -0.390624 0.878906 -0.875 v -13.3125 c 0 -0.488281 -0.394531 -0.878906 -0.878906 -0.878906 z m 1.554688 1.757813 h 6.386718 c 0.484375 0 0.878906 0.390625 0.878906 0.875 v 3.550781 c 0 0.484375 -0.394531 0.875 -0.878906 0.875 h -6.386718 c -0.484376 0 -0.878907 -0.390625 -0.878907 -0.875 v -3.550781 c 0 -0.484375 0.394531 -0.875 0.878907 -0.875 z m 6.496093 7.355469 c 0.53125 0 0.960938 0.429687 0.960938 0.957031 c -0.003907 0.53125 -0.429688 0.957031 -0.960938 0.957031 c -0.527343 0.003906 -0.957031 -0.425781 -0.957031 -0.957031 c 0 -0.253907 0.101562 -0.496094 0.28125 -0.675781 c 0.179688 -0.179688 0.421875 -0.28125 0.675781 -0.28125 z m -6.3125 0.089843 h 1.199219 v 1.15625 h 1.15625 v 1.199219 h -1.15625 v 1.152344 h -1.199219 v -1.152344 h -1.15625 v -1.199219 h 1.15625 z m 4.492188 1.671875 c 0.257812 0 0.5 0.101563 0.679687 0.28125 c 0.179688 0.179688 0.28125 0.421875 0.28125 0.675782 c 0 0.53125 -0.429687 0.960937 -0.960937 0.957031 c -0.527344 0.003906 -0.957031 -0.425781 -0.957031 -0.957031 c 0 -0.253907 0.101562 -0.496094 0.28125 -0.675782 c 0.179687 -0.179687 0.421874 -0.28125 0.675781 -0.28125 z m 0 0" fill="#241f31"/>
</svg>
