<?xml version="1.0" encoding="UTF-8" standalone="no"?>
<!-- Created with Inkscape (http://www.inkscape.org/) -->

<svg
   width="128"
   height="152"
   viewBox="0 0 33.866667 40.216666"
   version="1.1"
   id="svg1"
   inkscape:version="1.4 (e7c3feb100, 2024-10-09)"
   sodipodi:docname="test.svg"
   xmlns:inkscape="http://www.inkscape.org/namespaces/inkscape"
   xmlns:sodipodi="http://sodipodi.sourceforge.net/DTD/sodipodi-0.dtd"
   xmlns:xlink="http://www.w3.org/1999/xlink"
   xmlns="http://www.w3.org/2000/svg"
   xmlns:svg="http://www.w3.org/2000/svg">
  <sodipodi:namedview
     id="namedview1"
     pagecolor="#ffffff"
     bordercolor="#000000"
     borderopacity="0.25"
     inkscape:showpageshadow="2"
     inkscape:pageopacity="0.0"
     inkscape:pagecheckerboard="false"
     inkscape:deskcolor="#d1d1d1"
     inkscape:document-units="px"
     inkscape:zoom="1.0333895"
     inkscape:cx="397.23649"
     inkscape:cy="561.25984"
     inkscape:window-width="2560"
     inkscape:window-height="1403"
     inkscape:window-x="0"
     inkscape:window-y="0"
     inkscape:window-maximized="1"
     inkscape:current-layer="layer1" />
  <defs
     id="defs1">
    <rect
       x="52.606258"
       y="-162.39978"
       width="49.986374"
       height="13.412932"
       id="rect43" />
    <linearGradient
       id="b"
       x1="45"
       x2="45"
       y1="50"
       y2="82"
       gradientUnits="userSpaceOnUse"
       gradientTransform="matrix(0.34813594,0,0,0.27856016,143.72695,109.67337)">
      <stop
         stop-color="#BDD0D5"
         id="stop23"
         offset="0"
         style="stop-color:#243539;stop-opacity:1;" />
      <stop
         offset="1"
         stop-color="#305749"
         id="stop24"
         style="stop-color:#151515;stop-opacity:1;" />
    </linearGradient>
    <linearGradient
       inkscape:collect="always"
       xlink:href="#linearGradient37"
       id="linearGradient32"
       x1="21.430475"
       y1="235.64365"
       x2="106.43048"
       y2="235.64365"
       gradientUnits="userSpaceOnUse"
       gradientTransform="matrix(0.26458333,0,0,0.26458333,149.09271,71.172922)" />
    <linearGradient
       id="linearGradient37"
       x1="9"
       x2="119"
       y1="115"
       y2="115"
       gradientUnits="userSpaceOnUse"
       gradientTransform="translate(-52.621739,1.1968223)">
      <stop
         stop-color="#613583"
         id="stop32"
         offset="0"
         style="stop-color:#1a5fb4;stop-opacity:1;" />
      <stop
         offset="0.05"
         stop-color="#9141AC"
         id="stop33"
         style="stop-color:#3584e4;stop-opacity:1;" />
      <stop
         offset="0.22"
         stop-color="#613583"
         id="stop34"
         style="stop-color:#1a5fb4;stop-opacity:1;" />
      <stop
         offset="0.77999997"
         stop-color="#613583"
         id="stop35"
         style="stop-color:#1a5fb4;stop-opacity:1;" />
      <stop
         offset="0.94999999"
         stop-color="#9141AC"
         id="stop36"
         style="stop-color:#3584e4;stop-opacity:1;" />
      <stop
         offset="1"
         stop-color="#613583"
         id="stop37"
         style="stop-color:#1a5fb4;stop-opacity:1;" />
    </linearGradient>
  </defs>
  <g
     inkscape:label="Ebene 1"
     inkscape:groupmode="layer"
     id="layer1">
    <text
       xml:space="preserve"
       transform="matrix(0.26458333,0,0,0.26458333,144.87777,111.48387)"
       id="text42"
       style="font-style:normal;font-variant:normal;font-weight:normal;font-stretch:normal;font-size:8px;font-family:'Fusion Pixel 8px Proportional latin';-inkscape-font-specification:'Fusion Pixel 8px Proportional latin';white-space:pre;shape-inside:url(#rect43);display:inline;fill:#ffffff;fill-opacity:1;stroke:none;stroke-width:4;stroke-dasharray:none;stroke-opacity:1;enable-background:new" />
    <g
       id="g1"
       transform="translate(-146.97604,-112.44792)">
      <rect
         style="display:inline;fill:url(#linearGradient32);fill-opacity:1;stroke-width:0.264581;enable-background:new"
         id="rect1"
         width="22.489584"
         height="29.104166"
         x="152.66458"
         y="118.00417"
         rx="2.1166663"
         ry="2.1166666" />
      <rect
         style="display:inline;fill:#62a0ea;fill-opacity:1;stroke-width:0.26458;enable-background:new"
         id="rect2"
         width="22.489584"
         height="26.661678"
         x="152.66458"
         y="118.00417"
         rx="2.1166663"
         ry="2.1166666" />
      <path
         fill="#000000"
         d="m 171.07518,120.74428 h -14.3316 a 1.4331597,1.0583333 0 0 0 -1.43316,1.05834 v 10.58333 a 1.4331597,1.0583333 0 0 0 1.43316,1.05833 h 14.3316 a 1.4331597,1.0583333 0 0 0 1.43316,-1.05833 v -10.58333 a 1.4331597,1.0583333 0 0 0 -1.43316,-1.05834 z"
         id="path3"
         style="display:inline;stroke-width:0.264583;enable-background:new" />
      <path
         fill="url(#b)"
         d="m 169.82769,122.63732 h -11.83662 a 0.69627191,0.55712034 0 0 0 -0.69628,0.55712 v 7.79969 a 0.69627191,0.55712034 0 0 0 0.69628,0.55712 h 11.83662 a 0.69627191,0.55712034 0 0 0 0.69627,-0.55712 v -7.79969 a 0.69627191,0.55712034 0 0 0 -0.69627,-0.55712 z"
         id="path4-9"
         style="display:inline;fill:url(#b);stroke-width:0.264583;enable-background:new" />
      <path
         fill="#000000"
         d="m 159.38579,137.08154 a 0.926045,0.926045 0 1 0 -1.85209,0 v 3.43958 a 0.926045,0.926045 0 1 0 1.85209,0 z"
         id="path7"
         style="display:inline;stroke-width:0.264583;enable-background:new" />
      <path
         fill="#000000"
         d="m 160.44412,137.47842 h -3.96875 a 0.79374999,0.79374999 0 0 0 -0.79375,0.79374 v 0.52917 a 0.79374999,0.79374999 0 0 0 0.79375,0.79375 h 3.96875 a 0.79374999,0.79374999 0 0 0 0.79375,-0.79375 v -0.52917 a 0.79374999,0.79374999 0 0 0 -0.79375,-0.79374 z"
         id="path8"
         style="display:inline;stroke-width:0.264583;enable-background:new" />
      <path
         fill="#3d3846"
         d="m 159.38579,136.55237 a 0.926045,0.926045 0 1 0 -1.85209,0 v 3.43959 a 0.926045,0.926045 0 1 0 1.85209,0 z"
         id="path9"
         style="display:inline;stroke-width:0.264583;enable-background:new" />
      <path
         fill="#3d3846"
         d="m 160.44412,137.47842 h -3.96875 a 0.79374999,0.79374999 0 1 0 0,1.58749 h 3.96875 a 0.79374999,0.79374999 0 1 0 0,-1.58749 z"
         id="path10"
         style="display:inline;stroke-width:0.264583;enable-background:new" />
      <path
         fill="#000000"
         d="m 168.97103,139.62801 v -0.26458 a 1.3229166,1.3229166 0 0 0 -2.64583,0 v 0.26458 a 1.3229166,1.3229166 0 0 0 2.64583,0 z m 3.175,-1.5875 v -0.26458 a 1.3229166,1.3229166 0 0 0 -2.64583,0 v 0.26458 a 1.3229166,1.3229166 0 0 0 2.64583,0 z"
         id="path5"
         style="display:inline;stroke-width:0.264583;enable-background:new" />
      <path
         fill="#3d3846"
         d="m 167.64811,140.42176 c 0.73052,0 1.32292,-0.53313 1.32292,-1.19062 0,-0.65749 -0.5924,-1.19063 -1.32292,-1.19063 -0.73051,0 -1.32291,0.53314 -1.32291,1.19063 0,0.65749 0.5924,1.19062 1.32291,1.19062 z m 3.175,-1.5875 c 0.73052,0 1.32292,-0.53313 1.32292,-1.19062 0,-0.65749 -0.5924,-1.19063 -1.32292,-1.19063 -0.73051,0 -1.32291,0.53314 -1.32291,1.19063 0,0.65749 0.5924,1.19062 1.32291,1.19062 z"
         id="path6"
         style="display:inline;stroke-width:0.264583;enable-background:new" />
      <rect
         style="display:inline;fill:#33d17a;fill-opacity:1;stroke:none;stroke-width:1.05833;stroke-dasharray:none;stroke-opacity:1;enable-background:new"
         id="rect41-5"
         width="1.0583333"
         height="1.0583333"
         x="168.30598"
         y="124.09259" />
      <path
         style="display:inline;fill:none;fill-opacity:1;stroke:#deddda;stroke-width:1.05833;stroke-dasharray:none;stroke-opacity:1;enable-background:new"
         d="m 158.3834,129.88577 h 4.02541 v -5.31892 l 3.56121,0.007"
         id="path44"
         sodipodi:nodetypes="cccc" />
    </g>
  </g>
</svg>
